<?xml version="1.0" encoding="UTF-8"?>
<!DOCTYPE svg PUBLIC "-//W3C//DTD SVG 1.1//EN" "http://www.w3.org/Graphics/SVG/1.1/DTD/svg11.dtd">
<!-- Creator: CorelDRAW 2021.5 -->
<svg xmlns="http://www.w3.org/2000/svg" xml:space="preserve" width="147px" height="34px" version="1.1" style="shape-rendering:geometricPrecision; text-rendering:geometricPrecision; image-rendering:optimizeQuality; fill-rule:evenodd; clip-rule:evenodd"
viewBox="0 0 147 34"
 xmlns:xlink="http://www.w3.org/1999/xlink"
 xmlns:xodm="http://www.corel.com/coreldraw/odm/2003">
 <defs>
  <style type="text/css">
   <![CDATA[
    .fil0 {fill:black;fill-rule:nonzero}
   ]]>
  </style>
 </defs>
 <g id="Layer_x0020_1">
  <metadata id="CorelCorpID_0Corel-Layer"/>
  <path class="fil0" d="M9.32 17.51c0,-1.63 -0.21,-2.79 -0.63,-3.46 -0.42,-0.68 -1.14,-1.02 -2.16,-1.02 -0.32,0 -0.64,0.01 -0.98,0.05 -0.34,0.03 -0.67,0.07 -0.99,0.12l0 13.78 -5.06 0 0 -17.25c0.43,-0.11 0.94,-0.23 1.51,-0.35 0.58,-0.13 1.19,-0.24 1.84,-0.34 0.64,-0.1 1.31,-0.18 1.98,-0.24 0.68,-0.06 1.35,-0.09 2.01,-0.09 1.29,0 2.33,0.17 3.14,0.5 0.8,0.33 1.46,0.71 1.98,1.17 0.73,-0.52 1.56,-0.93 2.5,-1.22 0.94,-0.3 1.81,-0.45 2.6,-0.45 1.43,0 2.6,0.2 3.51,0.6 0.92,0.4 1.65,0.95 2.19,1.68 0.55,0.72 0.92,1.58 1.12,2.58 0.21,1 0.31,2.11 0.31,3.33l0 10.08 -5.06 0 0 -9.47c0,-1.63 -0.21,-2.79 -0.63,-3.46 -0.42,-0.68 -1.14,-1.02 -2.15,-1.02 -0.28,0 -0.65,0.06 -1.14,0.2 -0.49,0.14 -0.89,0.31 -1.21,0.51 0.16,0.52 0.26,1.07 0.31,1.65 0.04,0.57 0.07,1.19 0.07,1.85l0 9.74 -5.06 0 0 -9.47z"/>
  <path id="_1" class="fil0" d="M45.48 18.02c0,1.4 -0.2,2.69 -0.61,3.85 -0.41,1.17 -1,2.16 -1.77,2.99 -0.77,0.83 -1.69,1.47 -2.76,1.92 -1.08,0.45 -2.28,0.68 -3.62,0.68 -1.31,0 -2.51,-0.23 -3.58,-0.68 -1.08,-0.45 -2,-1.09 -2.77,-1.92 -0.77,-0.83 -1.37,-1.82 -1.8,-2.99 -0.43,-1.16 -0.64,-2.45 -0.64,-3.85 0,-1.41 0.22,-2.68 0.66,-3.84 0.44,-1.15 1.05,-2.14 1.83,-2.95 0.78,-0.82 1.71,-1.45 2.79,-1.9 1.07,-0.46 2.24,-0.68 3.51,-0.68 1.29,0 2.47,0.22 3.55,0.68 1.07,0.45 2,1.08 2.77,1.9 0.77,0.81 1.37,1.8 1.8,2.95 0.43,1.16 0.64,2.43 0.64,3.84zm-5.16 0c0,-1.56 -0.31,-2.79 -0.93,-3.69 -0.63,-0.89 -1.52,-1.34 -2.67,-1.34 -1.15,0 -2.05,0.45 -2.68,1.34 -0.64,0.9 -0.95,2.13 -0.95,3.69 0,1.56 0.31,2.8 0.95,3.72 0.63,0.91 1.53,1.37 2.68,1.37 1.15,0 2.04,-0.46 2.67,-1.37 0.62,-0.92 0.93,-2.16 0.93,-3.72z"/>
  <path id="_2" class="fil0" d="M53.7 17.47c0,2.83 1.14,4.25 3.43,4.25 0.52,0 1.01,-0.07 1.46,-0.21 0.45,-0.13 0.84,-0.29 1.15,-0.47l0 -8.08c-0.25,-0.05 -0.54,-0.09 -0.88,-0.12 -0.34,-0.03 -0.74,-0.05 -1.19,-0.05 -1.33,0 -2.33,0.44 -2.99,1.32 -0.65,0.89 -0.98,2.01 -0.98,3.36zm11.1 7.27c0,2.92 -0.74,5.09 -2.22,6.5 -1.49,1.42 -3.78,2.13 -6.88,2.13 -1.08,0 -2.17,-0.1 -3.26,-0.29 -1.08,-0.19 -2.09,-0.45 -3.02,-0.77l0.88 -4.24c0.79,0.32 1.63,0.56 2.5,0.75 0.87,0.18 1.86,0.27 2.97,0.27 1.45,0 2.47,-0.32 3.07,-0.95 0.6,-0.64 0.9,-1.45 0.9,-2.45l0 -0.64c-0.54,0.25 -1.1,0.43 -1.68,0.56 -0.58,0.12 -1.2,0.18 -1.88,0.18 -2.47,0 -4.36,-0.73 -5.67,-2.19 -1.32,-1.46 -1.97,-3.5 -1.97,-6.13 0,-1.31 0.2,-2.5 0.61,-3.58 0.41,-1.07 1,-2 1.78,-2.77 0.78,-0.76 1.74,-1.36 2.87,-1.78 1.13,-0.42 2.41,-0.63 3.84,-0.63 0.61,0 1.24,0.03 1.88,0.09 0.65,0.06 1.29,0.13 1.92,0.22 0.63,0.09 1.24,0.2 1.82,0.32 0.57,0.13 1.09,0.26 1.54,0.39l0 15.01z"/>
  <path id="_3" class="fil0" d="M86.26 18.02c0,1.4 -0.2,2.69 -0.61,3.85 -0.41,1.17 -1,2.16 -1.76,2.99 -0.77,0.83 -1.7,1.47 -2.77,1.92 -1.08,0.45 -2.28,0.68 -3.62,0.68 -1.31,0 -2.51,-0.23 -3.58,-0.68 -1.08,-0.45 -2,-1.09 -2.77,-1.92 -0.77,-0.83 -1.37,-1.82 -1.8,-2.99 -0.43,-1.16 -0.64,-2.45 -0.64,-3.85 0,-1.41 0.22,-2.68 0.66,-3.84 0.44,-1.15 1.05,-2.14 1.83,-2.95 0.78,-0.82 1.71,-1.45 2.79,-1.9 1.07,-0.46 2.24,-0.68 3.51,-0.68 1.29,0 2.47,0.22 3.55,0.68 1.07,0.45 2,1.08 2.77,1.9 0.77,0.81 1.37,1.8 1.8,2.95 0.43,1.16 0.64,2.43 0.64,3.84zm-5.16 0c0,-1.56 -0.31,-2.79 -0.93,-3.69 -0.63,-0.89 -1.51,-1.34 -2.67,-1.34 -1.15,0 -2.05,0.45 -2.68,1.34 -0.63,0.9 -0.95,2.13 -0.95,3.69 0,1.56 0.32,2.8 0.95,3.72 0.63,0.91 1.53,1.37 2.68,1.37 1.16,0 2.04,-0.46 2.67,-1.37 0.62,-0.92 0.93,-2.16 0.93,-3.72z"/>
  <path id="_4" class="fil0" d="M94.48 17.92c0,1.56 0.35,2.81 1.05,3.77 0.7,0.95 1.75,1.42 3.13,1.42 0.45,0 0.87,-0.02 1.25,-0.05 0.39,-0.03 0.7,-0.07 0.95,-0.12l0 -9.2c-0.31,-0.2 -0.73,-0.37 -1.24,-0.51 -0.51,-0.14 -1.02,-0.2 -1.54,-0.2 -2.4,0 -3.6,1.63 -3.6,4.89zm11.44 8.48c-0.45,0.14 -0.97,0.27 -1.56,0.4 -0.59,0.12 -1.2,0.23 -1.85,0.32 -0.65,0.09 -1.3,0.16 -1.97,0.22 -0.67,0.06 -1.31,0.08 -1.92,0.08 -1.47,0 -2.78,-0.21 -3.94,-0.64 -1.15,-0.43 -2.13,-1.05 -2.92,-1.85 -0.79,-0.81 -1.4,-1.78 -1.81,-2.92 -0.42,-1.15 -0.63,-2.43 -0.63,-3.86 0,-1.44 0.18,-2.75 0.54,-3.92 0.36,-1.16 0.88,-2.15 1.56,-2.97 0.68,-0.81 1.51,-1.44 2.5,-1.87 0.98,-0.43 2.11,-0.64 3.38,-0.64 0.7,0 1.33,0.07 1.88,0.2 0.56,0.14 1.12,0.33 1.68,0.58l0 -8.08 5.06 -0.82 0 25.77z"/>
  <path id="_5" class="fil0" d="M109.83 18.19c0,-1.59 0.24,-2.97 0.73,-4.16 0.48,-1.19 1.12,-2.18 1.92,-2.97 0.79,-0.8 1.7,-1.4 2.73,-1.8 1.03,-0.41 2.09,-0.61 3.17,-0.61 2.54,0 4.54,0.77 6.01,2.32 1.48,1.55 2.21,3.83 2.21,6.84 0,0.3 -0.01,0.62 -0.03,0.97 -0.03,0.35 -0.05,0.66 -0.07,0.94l-11.48 0c0.12,1.04 0.6,1.86 1.46,2.47 0.86,0.62 2.02,0.92 3.47,0.92 0.92,0 1.83,-0.08 2.73,-0.25 0.89,-0.17 1.62,-0.38 2.19,-0.63l0.68 4.11c-0.27,0.13 -0.64,0.27 -1.09,0.4 -0.45,0.14 -0.95,0.26 -1.51,0.36 -0.55,0.1 -1.15,0.19 -1.78,0.26 -0.64,0.06 -1.27,0.1 -1.9,0.1 -1.61,0 -3.01,-0.24 -4.2,-0.72 -1.19,-0.47 -2.17,-1.12 -2.95,-1.95 -0.78,-0.82 -1.36,-1.8 -1.73,-2.93 -0.38,-1.14 -0.56,-2.36 -0.56,-3.67zm11.88 -1.94c-0.02,-0.43 -0.1,-0.85 -0.22,-1.25 -0.12,-0.41 -0.32,-0.77 -0.58,-1.09 -0.26,-0.32 -0.59,-0.58 -0.98,-0.78 -0.4,-0.21 -0.89,-0.31 -1.48,-0.31 -0.56,0 -1.05,0.1 -1.46,0.29 -0.41,0.19 -0.75,0.45 -1.02,0.77 -0.27,0.31 -0.48,0.68 -0.63,1.1 -0.14,0.42 -0.25,0.84 -0.32,1.27l6.69 0z"/>
  <path id="_6" class="fil0" d="M135.39 26.98c-1.16,-2.26 -2.34,-4.91 -3.53,-7.94 -1.2,-3.04 -2.32,-6.34 -3.39,-9.92l5.36 0c0.23,0.88 0.5,1.84 0.81,2.87 0.3,1.03 0.62,2.07 0.95,3.12 0.33,1.06 0.66,2.08 0.99,3.08 0.33,0.99 0.65,1.9 0.97,2.71 0.3,-0.81 0.61,-1.72 0.96,-2.71 0.34,-1 0.67,-2.02 1,-3.08 0.33,-1.05 0.65,-2.09 0.95,-3.12 0.31,-1.03 0.58,-1.99 0.8,-2.87l5.24 0c-1.07,3.58 -2.2,6.88 -3.39,9.92 -1.19,3.03 -2.37,5.68 -3.53,7.94l-4.19 0z"/>
 </g>
</svg>
