<?xml version="1.0" encoding="UTF-8"?>
<!DOCTYPE svg PUBLIC "-//W3C//DTD SVG 1.1//EN" "http://www.w3.org/Graphics/SVG/1.1/DTD/svg11.dtd">
<!-- Creator: CorelDRAW 2021.5 -->
<svg xmlns="http://www.w3.org/2000/svg" xml:space="preserve" width="147px" height="34px" version="1.1" style="shape-rendering:geometricPrecision; text-rendering:geometricPrecision; image-rendering:optimizeQuality; fill-rule:evenodd; clip-rule:evenodd"
viewBox="0 0 147 34"
 xmlns:xlink="http://www.w3.org/1999/xlink"
 xmlns:xodm="http://www.corel.com/coreldraw/odm/2003">
 <defs>
  <style type="text/css">
   <![CDATA[
    .fil0 {fill:black;fill-rule:nonzero}
   ]]>
  </style>
 </defs>
 <g id="Layer_x0020_1">
  <metadata id="CorelCorpID_0Corel-Layer"/>
  <path class="fil0" d="M5.67 3.45c0.4,0.75 0.87,1.67 1.41,2.77 0.53,1.1 1.09,2.29 1.66,3.56 0.59,1.28 1.16,2.59 1.72,3.93 0.58,1.33 1.11,2.59 1.61,3.76 0.49,-1.17 1.03,-2.43 1.6,-3.76 0.56,-1.34 1.14,-2.65 1.72,-3.93 0.58,-1.27 1.13,-2.46 1.66,-3.56 0.54,-1.1 1.01,-2.02 1.42,-2.77l4.82 0c0.23,1.56 0.43,3.31 0.63,5.25 0.19,1.93 0.36,3.95 0.51,6.04 0.14,2.1 0.28,4.19 0.41,6.3 0.12,2.1 0.23,4.09 0.32,5.94l-5.16 0c-0.07,-2.28 -0.16,-4.77 -0.28,-7.47 -0.11,-2.69 -0.28,-5.41 -0.5,-8.15 -0.41,0.95 -0.87,2.01 -1.37,3.16 -0.5,1.16 -0.99,2.31 -1.48,3.46 -0.49,1.16 -0.96,2.26 -1.41,3.32 -0.46,1.05 -0.84,1.95 -1.16,2.69l-3.7 0c-0.32,-0.74 -0.71,-1.64 -1.16,-2.69 -0.46,-1.06 -0.93,-2.16 -1.41,-3.32 -0.5,-1.15 -0.99,-2.3 -1.49,-3.46 -0.49,-1.15 -0.95,-2.21 -1.36,-3.16 -0.23,2.74 -0.39,5.46 -0.51,8.15 -0.11,2.7 -0.2,5.19 -0.27,7.47l-5.16 0c0.09,-1.85 0.2,-3.84 0.32,-5.94 0.13,-2.11 0.26,-4.2 0.41,-6.3 0.15,-2.09 0.32,-4.11 0.51,-6.04 0.19,-1.94 0.4,-3.69 0.63,-5.25l5.06 0z"/>
  <path id="_1" class="fil0" d="M46.24 18.02c0,1.4 -0.2,2.69 -0.61,3.85 -0.41,1.17 -0.99,2.16 -1.76,2.99 -0.77,0.83 -1.7,1.47 -2.77,1.92 -1.08,0.45 -2.28,0.68 -3.62,0.68 -1.31,0 -2.5,-0.23 -3.58,-0.68 -1.07,-0.45 -2,-1.09 -2.77,-1.92 -0.77,-0.83 -1.37,-1.82 -1.8,-2.99 -0.43,-1.16 -0.64,-2.45 -0.64,-3.85 0,-1.41 0.22,-2.68 0.66,-3.84 0.44,-1.15 1.05,-2.14 1.83,-2.95 0.79,-0.82 1.71,-1.45 2.79,-1.9 1.07,-0.46 2.24,-0.68 3.51,-0.68 1.29,0 2.48,0.22 3.55,0.68 1.08,0.45 2,1.08 2.77,1.9 0.77,0.81 1.37,1.8 1.8,2.95 0.43,1.16 0.64,2.43 0.64,3.84zm-5.16 0c0,-1.56 -0.31,-2.79 -0.93,-3.69 -0.62,-0.89 -1.51,-1.34 -2.67,-1.34 -1.15,0 -2.05,0.45 -2.68,1.34 -0.63,0.9 -0.95,2.13 -0.95,3.69 0,1.56 0.32,2.8 0.95,3.72 0.63,0.91 1.53,1.37 2.68,1.37 1.16,0 2.05,-0.46 2.67,-1.37 0.62,-0.92 0.93,-2.16 0.93,-3.72z"/>
  <path id="_2" class="fil0" d="M54.46 17.47c0,2.83 1.14,4.25 3.43,4.25 0.52,0 1.01,-0.07 1.46,-0.21 0.45,-0.13 0.84,-0.29 1.16,-0.47l0 -8.08c-0.25,-0.05 -0.55,-0.09 -0.89,-0.12 -0.34,-0.03 -0.73,-0.05 -1.19,-0.05 -1.33,0 -2.33,0.44 -2.98,1.32 -0.66,0.89 -0.99,2.01 -0.99,3.36zm11.1 7.27c0,2.92 -0.74,5.09 -2.22,6.5 -1.48,1.42 -3.77,2.13 -6.88,2.13 -1.08,0 -2.17,-0.1 -3.25,-0.29 -1.09,-0.19 -2.1,-0.45 -3.03,-0.77l0.89 -4.24c0.79,0.32 1.62,0.56 2.49,0.75 0.87,0.18 1.86,0.27 2.97,0.27 1.45,0 2.48,-0.32 3.08,-0.95 0.6,-0.64 0.9,-1.45 0.9,-2.45l0 -0.64c-0.55,0.25 -1.11,0.43 -1.69,0.56 -0.57,0.12 -1.2,0.18 -1.88,0.18 -2.47,0 -4.36,-0.73 -5.67,-2.19 -1.31,-1.46 -1.97,-3.5 -1.97,-6.13 0,-1.31 0.2,-2.5 0.61,-3.58 0.41,-1.07 1,-2 1.78,-2.77 0.79,-0.76 1.74,-1.36 2.87,-1.78 1.13,-0.42 2.41,-0.63 3.84,-0.63 0.61,0 1.24,0.03 1.88,0.09 0.65,0.06 1.29,0.13 1.92,0.22 0.64,0.09 1.24,0.2 1.82,0.32 0.58,0.13 1.09,0.26 1.54,0.39l0 15.01z"/>
  <path id="_3" class="fil0" d="M87.02 18.02c0,1.4 -0.2,2.69 -0.61,3.85 -0.4,1.17 -0.99,2.16 -1.76,2.99 -0.77,0.83 -1.69,1.47 -2.77,1.92 -1.07,0.45 -2.28,0.68 -3.62,0.68 -1.31,0 -2.5,-0.23 -3.58,-0.68 -1.07,-0.45 -2,-1.09 -2.77,-1.92 -0.77,-0.83 -1.37,-1.82 -1.8,-2.99 -0.42,-1.16 -0.64,-2.45 -0.64,-3.85 0,-1.41 0.22,-2.68 0.66,-3.84 0.44,-1.15 1.06,-2.14 1.84,-2.95 0.78,-0.82 1.7,-1.45 2.78,-1.9 1.08,-0.46 2.25,-0.68 3.51,-0.68 1.29,0 2.48,0.22 3.55,0.68 1.08,0.45 2,1.08 2.77,1.9 0.77,0.81 1.37,1.8 1.8,2.95 0.43,1.16 0.64,2.43 0.64,3.84zm-5.16 0c0,-1.56 -0.31,-2.79 -0.93,-3.69 -0.62,-0.89 -1.51,-1.34 -2.67,-1.34 -1.15,0 -2.04,0.45 -2.68,1.34 -0.63,0.9 -0.95,2.13 -0.95,3.69 0,1.56 0.32,2.8 0.95,3.72 0.64,0.91 1.53,1.37 2.68,1.37 1.16,0 2.05,-0.46 2.67,-1.37 0.62,-0.92 0.93,-2.16 0.93,-3.72z"/>
  <path id="_4" class="fil0" d="M95.24 17.92c0,1.56 0.35,2.81 1.06,3.77 0.7,0.95 1.74,1.42 3.12,1.42 0.45,0 0.87,-0.02 1.25,-0.05 0.39,-0.03 0.71,-0.07 0.96,-0.12l0 -9.2c-0.32,-0.2 -0.73,-0.37 -1.24,-0.51 -0.51,-0.14 -1.03,-0.2 -1.55,-0.2 -2.4,0 -3.6,1.63 -3.6,4.89zm11.45 8.48c-0.46,0.14 -0.98,0.27 -1.57,0.4 -0.59,0.12 -1.2,0.23 -1.85,0.32 -0.64,0.09 -1.3,0.16 -1.97,0.22 -0.66,0.06 -1.3,0.08 -1.91,0.08 -1.48,0 -2.79,-0.21 -3.94,-0.64 -1.16,-0.43 -2.13,-1.05 -2.92,-1.85 -0.8,-0.81 -1.4,-1.78 -1.82,-2.92 -0.42,-1.15 -0.63,-2.43 -0.63,-3.86 0,-1.44 0.18,-2.75 0.54,-3.92 0.37,-1.16 0.89,-2.15 1.57,-2.97 0.68,-0.81 1.51,-1.44 2.49,-1.87 0.99,-0.43 2.11,-0.64 3.38,-0.64 0.7,0 1.33,0.07 1.88,0.2 0.56,0.14 1.12,0.33 1.69,0.58l0 -8.08 5.06 -0.82 0 25.77z"/>
  <path id="_5" class="fil0" d="M110.59 18.19c0,-1.59 0.24,-2.97 0.73,-4.16 0.49,-1.19 1.13,-2.18 1.92,-2.97 0.79,-0.8 1.7,-1.4 2.73,-1.8 1.03,-0.41 2.09,-0.61 3.18,-0.61 2.53,0 4.54,0.77 6.01,2.32 1.47,1.55 2.2,3.83 2.2,6.84 0,0.3 -0.01,0.62 -0.03,0.97 -0.02,0.35 -0.04,0.66 -0.07,0.94l-11.48 0c0.12,1.04 0.6,1.86 1.47,2.47 0.86,0.62 2.01,0.92 3.46,0.92 0.93,0 1.84,-0.08 2.73,-0.25 0.9,-0.17 1.63,-0.38 2.19,-0.63l0.68 4.11c-0.27,0.13 -0.63,0.27 -1.08,0.4 -0.46,0.14 -0.96,0.26 -1.52,0.36 -0.55,0.1 -1.14,0.19 -1.78,0.26 -0.63,0.06 -1.27,0.1 -1.9,0.1 -1.61,0 -3.01,-0.24 -4.19,-0.72 -1.19,-0.47 -2.18,-1.12 -2.96,-1.95 -0.78,-0.82 -1.36,-1.8 -1.73,-2.93 -0.37,-1.14 -0.56,-2.36 -0.56,-3.67zm11.88 -1.94c-0.02,-0.43 -0.09,-0.85 -0.22,-1.25 -0.12,-0.41 -0.31,-0.77 -0.57,-1.09 -0.26,-0.32 -0.59,-0.58 -0.99,-0.78 -0.39,-0.21 -0.89,-0.31 -1.48,-0.31 -0.56,0 -1.05,0.1 -1.46,0.29 -0.4,0.19 -0.74,0.45 -1.01,0.77 -0.28,0.31 -0.49,0.68 -0.63,1.1 -0.15,0.42 -0.26,0.84 -0.33,1.27l6.69 0z"/>
  <path id="_6" class="fil0" d="M136.15 26.98c-1.16,-2.26 -2.33,-4.91 -3.53,-7.94 -1.19,-3.04 -2.32,-6.34 -3.39,-9.92l5.37 0c0.22,0.88 0.49,1.84 0.8,2.87 0.31,1.03 0.62,2.07 0.95,3.12 0.33,1.06 0.66,2.08 0.99,3.08 0.33,0.99 0.66,1.9 0.97,2.71 0.3,-0.81 0.61,-1.72 0.96,-2.71 0.34,-1 0.67,-2.02 1,-3.08 0.33,-1.05 0.65,-2.09 0.96,-3.12 0.3,-1.03 0.57,-1.99 0.8,-2.87l5.23 0c-1.07,3.58 -2.19,6.88 -3.39,9.92 -1.19,3.03 -2.36,5.68 -3.52,7.94l-4.2 0z"/>
 </g>
</svg>
